<svg xmlns="http://www.w3.org/2000/svg" width="64" height="64" fill="none" viewBox="0 0 64 64">
  <defs>
    <linearGradient id="bg" x1="10" x2="54" y1="8" y2="56" gradientUnits="userSpaceOnUse">
      <stop stop-color="#E56BB6"/>
      <stop offset="1" stop-color="#8B3DFF"/>
    </linearGradient>
  </defs>

  <rect width="48" height="48" x="8" y="8" fill="url(#bg)" rx="16"/>

  <g fill="#fff" transform="translate(32 32)">
    <rect x="-3" y="-20" width="6" height="9" rx="2"/>
    <rect x="-3" y="-20" width="6" height="9" rx="2" transform="rotate(45)"/>
    <rect x="-3" y="-20" width="6" height="9" rx="2" transform="rotate(90)"/>
    <rect x="-3" y="-20" width="6" height="9" rx="2" transform="rotate(135)"/>
    <rect x="-3" y="-20" width="6" height="9" rx="2" transform="rotate(180)"/>
    <rect x="-3" y="-20" width="6" height="9" rx="2" transform="rotate(225)"/>
    <rect x="-3" y="-20" width="6" height="9" rx="2" transform="rotate(270)"/>
    <rect x="-3" y="-20" width="6" height="9" rx="2" transform="rotate(315)"/>
    <circle r="14"/>
  </g>

  <circle cx="32" cy="32" r="6" fill="url(#bg)"/>
</svg>
